<svg version="1.1" xmlns="http://www.w3.org/2000/svg" xmlns:xlink="http://www.w3.org/1999/xlink" viewBox="0 0 172 172"><g fill="none" fill-rule="nonzero" stroke="none" stroke-width="1" stroke-linecap="butt" stroke-linejoin="miter" stroke-miterlimit="10" stroke-dasharray="" stroke-dashoffset="0" font-family="none" font-weight="none" font-size="none" text-anchor="none" style="mix-blend-mode: normal"><path d="M0,172v-172h172v172z" fill="none"></path><g fill="#000000"><path d="M40.13333,11.46667c-2.06765,-0.02924 -3.99087,1.05709 -5.03322,2.843c-1.04236,1.78592 -1.04236,3.99474 0,5.78066c1.04236,1.78592 2.96558,2.87225 5.03322,2.843h11.46667c3.1648,0 5.73333,2.5628 5.73333,5.73333c0,3.17053 -2.56853,5.73333 -5.73333,5.73333h-5.73333h-17.2c-2.06765,-0.02924 -3.99087,1.05709 -5.03322,2.843c-1.04236,1.78592 -1.04236,3.99474 0,5.78066c1.04236,1.78592 2.96558,2.87225 5.03322,2.843h1.22057c-0.0389,0.07606 -0.08454,0.14774 -0.12318,0.22396c2.62013,0.52747 4.63594,2.72871 4.63594,5.50937c0,3.17053 -2.56853,5.73333 -5.73333,5.73333h-17.2c-2.06765,-0.02924 -3.99087,1.05709 -5.03322,2.843c-1.04236,1.78592 -1.04236,3.99474 0,5.78066c1.04236,1.78592 2.96558,2.87225 5.03322,2.843h17.2c3.1648,0 5.73333,2.5628 5.73333,5.73333c0,3.17053 -2.56853,5.73333 -5.73333,5.73333h-5.73333c-2.06765,-0.02924 -3.99087,1.05709 -5.03322,2.843c-1.04236,1.78592 -1.04236,3.99474 0,5.78066c1.04236,1.78592 2.96558,2.87225 5.03322,2.843h11.46667c3.1648,0 5.73333,2.5628 5.73333,5.73333c0,3.17053 -2.56853,5.73333 -5.73333,5.73333h-11.46667c-2.06765,-0.02924 -3.99087,1.05709 -5.03322,2.843c-1.04236,1.78592 -1.04236,3.99474 0,5.78066c1.04236,1.78592 2.96558,2.87225 5.03322,2.843h22.93333h5.73333c3.1648,0 5.73333,2.5628 5.73333,5.73333c0,3.17053 -2.56853,5.73333 -5.73333,5.73333h-2.23958h-3.49375c-2.06765,-0.02924 -3.99087,1.05709 -5.03322,2.843c-1.04236,1.78592 -1.04236,3.99474 0,5.78066c1.04236,1.78592 2.96558,2.87225 5.03322,2.843h19.01406c1.54185,1.02475 3.57719,2.33007 4.19922,2.88906c5.246,4.71853 9.57242,15.29018 11.3211,21.28724c0.84853,2.91253 3.23682,4.38251 5.59896,4.44558c2.36787,-0.06881 4.75043,-1.53878 5.59896,-4.44558c1.74867,-5.99707 6.0751,-16.56298 11.3211,-21.28724c5.13707,-4.62107 46.14661,-24.48079 46.14661,-65.95573c0,-34.62963 -27.91968,-62.71078 -62.47317,-63.03307c-0.19712,-0.02145 -0.39521,-0.03267 -0.59349,-0.03359zM86,57.33333c9.50013,0 17.2,7.69987 17.2,17.2c0,9.50013 -7.69987,17.2 -17.2,17.2c-9.50013,0 -17.2,-7.69987 -17.2,-17.2c0,-9.50013 7.69987,-17.2 17.2,-17.2z"></path></g></g></svg>